<?xml version="1.0" encoding="utf-8"?>
<!-- Generator: Adobe Illustrator 23.1.0, SVG Export Plug-In . SVG Version: 6.00 Build 0)  -->
<svg version="1.1" id="Layer_1" xmlns="http://www.w3.org/2000/svg" xmlns:xlink="http://www.w3.org/1999/xlink" x="0px" y="0px"
	 viewBox="0 0 306.2 208.7" style="enable-background:new 0 0 306.2 208.7;" xml:space="preserve">
<style type="text/css">
	.st0{fill:#BC802A;}
	.st1{opacity:0.33;fill:url(#SVGID_1_);enable-background:new    ;}
	.st2{fill:url(#SVGID_2_);}
	.st3{fill:#DADADA;}
	.st4{fill:url(#SVGID_3_);}
	.st5{opacity:0.63;fill:url(#SVGID_4_);enable-background:new    ;}
	.st6{opacity:0.73;fill:url(#SVGID_5_);enable-background:new    ;}
	.st7{fill:url(#SVGID_6_);}
	.st8{fill:#C6C6C6;}
</style>
<path class="st0" d="M159.4,13.4c-3.9,0-7.7-0.5-11.4-1.6s-8.2-2.7-11.3-4.9c-0.6-0.5-1.3-0.9-2-1.3c-3.3-1.8-12.9-6.7-21.4-5.3
	c0,0-9,0.5-9.8,12V28c0,0-1.8,16.6,9.3,24c0,0,6.4,3.8,6.7,10.8v54.4l15.4,0.2V60.6c0,0,0.7-10-6.8-16c0,0-10.2-6.2-8.9-15.6v-3.7
	c0-2.2,0.7-3.9,1.6-5c1.9-2.5,5.1-3.3,8.1-2.5c2.3,0.6,4.5,1.8,6.2,2.9c7.1,4.6,15.3,4.3,23.7,4.2c0.7,0,1.1,0,1.1,0H197V13.4H159.4
	z"/>
<linearGradient id="SVGID_1_" gradientUnits="userSpaceOnUse" x1="-1679.1669" y1="992.5318" x2="-1684.8392" y2="1007.9273" gradientTransform="matrix(-1.9166 1.0129 0.8144 1.541 -3871.6946 179.9034)">
	<stop  offset="0" style="stop-color:#3C3C3B;stop-opacity:0.6"/>
	<stop  offset="0.1803" style="stop-color:#70706F;stop-opacity:0.5156"/>
	<stop  offset="0.4275" style="stop-color:#B2B2B2;stop-opacity:0.4"/>
	<stop  offset="1" style="stop-color:#FFFFFF;stop-opacity:0"/>
</linearGradient>
<path class="st1" d="M196.4,10.1l-51.1,0.3l-9.5,4.7l-3.1,6.7l3.6-0.3l3.4-0.8c3.4-0.8,6.9-1.4,10.4-1.7l20.4-1.7l14.7-3.3
	L196.4,10.1z"/>
<linearGradient id="SVGID_2_" gradientUnits="userSpaceOnUse" x1="-1477.5232" y1="536.1384" x2="-1480.8575" y2="545.188" gradientTransform="matrix(-2.0009 -0.8342 -0.6707 1.6088 -2484.384 -2061.876)">
	<stop  offset="0" style="stop-color:#FFFFFF;stop-opacity:0"/>
	<stop  offset="8.500000e-02" style="stop-color:#F5F5F5;stop-opacity:8.500000e-02"/>
	<stop  offset="0.2277" style="stop-color:#DBDBDB;stop-opacity:0.2277"/>
	<stop  offset="0.4106" style="stop-color:#B1B1B1;stop-opacity:0.4106"/>
	<stop  offset="0.6267" style="stop-color:#767676;stop-opacity:0.6267"/>
	<stop  offset="0.8679" style="stop-color:#2C2C2C;stop-opacity:0.8679"/>
	<stop  offset="1" style="stop-color:#000000"/>
</linearGradient>
<path class="st2" d="M121.4,36.9l-18-9.9l0.1,1.1c-0.1,6.9,0.4,15.8,7.8,22.2l0.8,0.7l6.9-4.3L121.4,36.9z"/>
<path class="st3" d="M104.2,118.4V66.5c0-4.7,1.7-9.2,4.9-12.6c1.3-1.4,3.1-2.8,5.2-3.9c6.6-3.3,5.9-13.7,5.9-13.7V24.8
	c0,0,0-13,13.8-20.3c4.6-2.4,9.7-3.5,14.8-3.6L197,0.8v12.4l-44.8,0c0,0-14.8-0.9-16,11.6l-0.2,11c0,0,0.9,14.3-7.2,19.4
	s-8,11.4-8,11.4v51.8H104.2z"/>
<path class="st0" d="M104.2,154.4v-33.2c0,0,0.1-23.5,15.1-34.7c0,0,11.9-11.1,41.9-11l34.1,0.1v11h-28.1c0,0-21.9-1.7-35.2,8.3
	c0,0-10.1,6.8-11.7,25.6l-0.1,38.5L104.2,154.4z"/>
<linearGradient id="SVGID_3_" gradientUnits="userSpaceOnUse" x1="109.8357" y1="53.4076" x2="211.5784" y2="220.9546" gradientTransform="matrix(1 0 0 -1 0 210)">
	<stop  offset="0" style="stop-color:#FFFFFF"/>
	<stop  offset="1" style="stop-color:#000000"/>
</linearGradient>
<path class="st4" d="M236.2,33.3c5.7,11.9,8.8,25.3,8.8,39.4c0,50.8-41.2,91.9-91.9,91.9s-91.9-41.2-91.9-91.9
	c0-14.1,3.2-27.4,8.8-39.3c-9.4,15.1-14.9,32.9-14.9,51.9c0,54.1,43.9,98,98,98s98-43.9,98-98C251.1,66.2,245.7,48.4,236.2,33.3z"/>
<linearGradient id="SVGID_4_" gradientUnits="userSpaceOnUse" x1="-1672.3185" y1="988.9385" x2="-1676.0554" y2="999.081" gradientTransform="matrix(-1.9878 0.865 0.6955 1.5982 -3849.7227 -56.3683)">
	<stop  offset="0" style="stop-color:#3C3C3B"/>
	<stop  offset="0.1513" style="stop-color:#464645;stop-opacity:0.9022"/>
	<stop  offset="0.2848" style="stop-color:#535352;stop-opacity:0.8159"/>
	<stop  offset="0.6132" style="stop-color:#7C7B7B;stop-opacity:0.5057"/>
	<stop  offset="0.7062" style="stop-color:#979696;stop-opacity:0.3841"/>
	<stop  offset="0.9051" style="stop-color:#DCDCDC;stop-opacity:0.124"/>
	<stop  offset="1" style="stop-color:#FFFFFF;stop-opacity:0"/>
</linearGradient>
<polygon class="st5" points="195.3,75.7 163.2,75.8 148.2,81.9 141.2,90.2 148.1,88.3 156.8,86.9 177,86.7 186,82.9 "/>
<path class="st3" d="M120.3,159.1v-49c0,0,0.1-23.5,15.8-34.7c0,0,12.4-11.1,43.9-11h15.3v11.2L184,75.6c0,0-23-1.7-36.9,8.3
	c0,0-10.6,6.8-12.3,25.6l-0.1,54.3L120.3,159.1z"/>
<linearGradient id="SVGID_5_" gradientUnits="userSpaceOnUse" x1="-1657.9678" y1="973.2967" x2="-1661.0707" y2="981.7184" gradientTransform="matrix(-1.9878 0.865 0.6955 1.5982 -3849.7227 -56.3683)">
	<stop  offset="0" style="stop-color:#FFFFFF;stop-opacity:0"/>
	<stop  offset="8.500000e-02" style="stop-color:#F5F5F5;stop-opacity:8.500000e-02"/>
	<stop  offset="0.2277" style="stop-color:#DBDBDB;stop-opacity:0.2277"/>
	<stop  offset="0.4106" style="stop-color:#B1B1B1;stop-opacity:0.4106"/>
	<stop  offset="0.6267" style="stop-color:#767676;stop-opacity:0.6267"/>
	<stop  offset="0.8679" style="stop-color:#2C2C2C;stop-opacity:0.8679"/>
	<stop  offset="1" style="stop-color:#000000"/>
</linearGradient>
<path class="st6" d="M134.6,76.6l-1.6-0.7c-13.6-7,2.3-20.5-0.9-25l-5,4.6c-0.2,0.2-0.5,0.5-0.8,0.8c-3.7,4-5.6,9.3-5.6,14.7l0,1.6
	l0,13L134.6,76.6z"/>
<linearGradient id="SVGID_6_" gradientUnits="userSpaceOnUse" x1="-1492.1628" y1="580.6322" x2="-1499.7742" y2="601.2899" gradientTransform="matrix(-2.0009 -0.8342 -0.6707 1.6088 -2484.384 -2061.876)">
	<stop  offset="0" style="stop-color:#FFFFFF;stop-opacity:0"/>
	<stop  offset="8.500000e-02" style="stop-color:#F5F5F5;stop-opacity:8.500000e-02"/>
	<stop  offset="0.2277" style="stop-color:#DBDBDB;stop-opacity:0.2277"/>
	<stop  offset="0.4106" style="stop-color:#B1B1B1;stop-opacity:0.4106"/>
	<stop  offset="0.6267" style="stop-color:#767676;stop-opacity:0.6267"/>
	<stop  offset="0.8679" style="stop-color:#2C2C2C;stop-opacity:0.8679"/>
	<stop  offset="1" style="stop-color:#000000"/>
</linearGradient>
<polygon class="st7" points="120.3,106 104.2,120.2 104.2,150.5 111.5,155.7 120.3,158.4 "/>
<g>
	<path class="st8" d="M29.1,180.9c0-0.4-0.2-0.7-0.5-1c-0.3-0.2-0.9-0.3-1.7-0.3H8.1v7.2h11.4c0.8,0,1.4-0.1,1.8-0.2
		c0.4-0.1,0.6-0.5,0.6-1.1h1v8.4h-1c0-0.9-0.2-1.5-0.6-1.7s-1-0.4-1.8-0.4H8.1v11.3c0,0.4,0.2,0.6,0.5,0.8s0.8,0.3,1.2,0.3v1.1H0
		v-1.1c1,0,1.5-0.4,1.5-1.1v-26.4c0-0.7-0.5-1.1-1.5-1.1v-1.1h26.9c0.8,0,1.4-0.1,1.7-0.4c0.3-0.2,0.5-0.6,0.5-1h1v7.7L29.1,180.9
		L29.1,180.9z"/>
	<path class="st8" d="M49.4,179.3c2.1,0,4.1,0.3,6,0.8s3.5,1.4,4.9,2.4c1.4,1.1,2.5,2.4,3.3,4.1c0.8,1.6,1.2,3.6,1.2,5.8
		c0,2.2-0.4,4.1-1.2,5.8c-0.8,1.6-1.9,3-3.3,4.1c-1.4,1.1-3,1.9-4.9,2.4c-1.9,0.5-3.9,0.7-6,0.7s-4.1-0.2-6-0.7
		c-1.9-0.5-3.5-1.3-4.9-2.4c-1.4-1.1-2.5-2.4-3.3-4.1c-0.8-1.6-1.2-3.6-1.2-5.8c0-2.2,0.4-4.1,1.2-5.8s1.9-3,3.3-4.1
		c1.4-1.1,3-1.9,4.9-2.4C45.2,179.6,47.2,179.3,49.4,179.3z M49.4,183.6c-1.2,0-2.5,0.2-3.6,0.6s-2.2,1-3.2,1.7
		c-0.9,0.8-1.7,1.7-2.2,2.8c-0.6,1.1-0.8,2.3-0.8,3.7c0,1.4,0.3,2.6,0.8,3.7c0.6,1.1,1.3,2,2.2,2.8c0.9,0.8,2,1.3,3.2,1.7
		c1.2,0.4,2.4,0.6,3.6,0.6s2.5-0.2,3.6-0.6s2.2-1,3.2-1.7c0.9-0.8,1.7-1.7,2.2-2.8c0.6-1.1,0.8-2.3,0.8-3.7c0-1.4-0.3-2.6-0.8-3.7
		c-0.6-1.1-1.3-2-2.2-2.8s-2-1.3-3.2-1.7C51.8,183.8,50.6,183.6,49.4,183.6z"/>
	<path class="st8" d="M87.7,179.7c3.4,0,6.1,0.6,8.1,1.7c1.9,1.1,2.9,3.1,2.9,5.8c0,1.1-0.2,2-0.6,2.8c-0.4,0.8-0.9,1.5-1.5,2.1
		c-0.6,0.6-1.3,1.1-2.1,1.4c-0.8,0.4-1.6,0.6-2.4,0.8l5.7,8.3c0.3,0.4,0.7,0.8,1,1c0.4,0.2,0.8,0.4,1.2,0.5v1.1h-8.9v-1.1
		c0.5,0,0.8-0.2,0.8-0.5c0-0.4-0.3-1-0.9-1.8l-4.6-6.9h-8.1v8.3c0,0.3,0.1,0.5,0.4,0.7s0.5,0.2,0.7,0.2v1.1h-7.7v-1.1
		c0.7,0,1.1-0.3,1.1-0.9v-21.7c0-0.6-0.3-0.9-1.1-0.9v-1.1L87.7,179.7L87.7,179.7z M87.6,190.7c3.8,0,5.7-1.2,5.7-3.6
		c0-1-0.5-1.7-1.4-2.3c-0.9-0.6-2.3-0.8-4.3-0.8h-9.2v6.7L87.6,190.7L87.6,190.7z"/>
	<path class="st8" d="M108,204.2c0.2,0,0.4-0.1,0.5-0.2c0.1-0.1,0.2-0.4,0.2-0.8v-21.2c0-0.5-0.1-0.9-0.2-1
		c-0.1-0.1-0.3-0.2-0.6-0.2v-1.1h8.1v1.1c-0.4,0-0.6,0.2-0.6,0.5c0,0.2,0.1,0.4,0.2,0.6c0.1,0.2,0.3,0.6,0.6,1.1l7.1,13.1l7.1-13
		c0.3-0.5,0.5-0.8,0.6-1.1c0.1-0.3,0.2-0.5,0.2-0.6c0-0.4-0.2-0.5-0.5-0.5v-1.1h8.2v1.1c-0.2,0-0.4,0.1-0.6,0.1
		c-0.2,0.1-0.3,0.3-0.3,0.6v21.8c0,0.3,0.1,0.5,0.3,0.7s0.4,0.2,0.6,0.2v1.1h-6.7v-1.1c0.8,0,1.2-0.3,1.1-0.9V187h-0.1l-9.9,18.2
		H123l-9.3-18.2h0.1h-0.1v16.3c0,0.6,0.3,0.9,1,0.9v1.1H108V204.2z"/>
	<path class="st8" d="M143.3,203.8c0.6-0.1,1.1-0.4,1.6-0.9c0.4-0.5,0.7-1,0.9-1.4l11.8-25.8c0.3-0.7,0.6-1.3,0.8-1.8
		c0.2-0.4,0.3-0.9,0.3-1.3c0-0.3-0.1-0.5-0.2-0.6c-0.1-0.1-0.3-0.2-0.4-0.3v-1.4h12v1.4c-0.2,0.1-0.3,0.2-0.5,0.2
		c-0.2,0.1-0.3,0.3-0.3,0.6c0,0.3,0.1,0.7,0.4,1.1s0.5,1,0.8,1.5l12.8,26.9c0.3,0.5,0.6,0.8,0.9,1c0.3,0.2,0.7,0.4,1,0.5v1.4h-11.2
		V204c0.3,0,0.5-0.1,0.8-0.2c0.3-0.2,0.4-0.4,0.4-0.9c0-0.3-0.1-0.6-0.2-0.9s-0.2-0.6-0.4-1l-2.1-4.5h-17l-2.2,4.3
		c-0.2,0.4-0.4,0.8-0.5,1.1c-0.1,0.3-0.2,0.6-0.2,0.9c0,0.4,0.1,0.7,0.4,0.8c0.3,0.1,0.6,0.2,1.1,0.2v1.4h-10.6L143.3,203.8
		L143.3,203.8z M169.7,190.6l-6.4-13.3l-5.6,13.3H169.7z"/>
	<path class="st8" d="M192.3,196.3c0,0.1,0,0.3,0,0.5s0,0.4,0,0.6c0,0.6,0.4,1.1,1.1,1.6c0.7,0.5,1.6,0.9,2.6,1.2
		c1,0.3,2.1,0.6,3.1,0.8c1,0.2,1.8,0.3,2.4,0.3c0.5,0,1.2,0,2-0.1s1.6-0.2,2.4-0.5s1.4-0.6,2-1.1c0.5-0.4,0.8-1,0.8-1.8
		c0-0.9-0.5-1.5-1.4-1.9s-2.1-0.7-3.6-0.9c-1.4-0.2-3-0.4-4.6-0.6s-3.2-0.6-4.6-1.1c-1.4-0.5-2.6-1.2-3.6-2.1
		c-0.9-0.9-1.4-2.2-1.4-3.9c0-2.5,1-4.4,3.1-5.9s4.9-2.2,8.6-2.2c1.8,0,3.4,0.1,4.7,0.4c1.3,0.3,2.4,0.6,3.3,1s1.6,0.7,2.2,1
		c0.6,0.3,1,0.4,1.2,0.4c0.3,0,0.5-0.1,0.7-0.1c0.1-0.1,0.4-0.2,0.6-0.3l0.6,0.6l-2.9,5.5l-1.1-0.4c0-0.2-0.1-0.5-0.1-0.7
		c0-0.2-0.2-0.5-0.5-0.7c-0.8-0.7-2-1.2-3.6-1.7s-3.4-0.7-5.5-0.7c-0.8,0-1.5,0.1-2.2,0.1c-0.7,0.1-1.3,0.3-1.9,0.5
		c-0.5,0.2-1,0.5-1.3,0.9s-0.5,0.8-0.5,1.4c0,0.9,0.5,1.5,1.4,1.8s2.1,0.7,3.6,0.9c1.4,0.2,3,0.4,4.6,0.6c1.7,0.2,3.2,0.6,4.6,1.1
		s2.6,1.2,3.6,2.2c0.9,1,1.4,2.3,1.4,4c0,1.7-0.4,3.1-1.2,4.2c-0.8,1.1-1.9,1.9-3.1,2.6s-2.6,1-4.1,1.2c-1.5,0.2-2.9,0.3-4.2,0.3
		s-2.6-0.1-3.9-0.4s-2.5-0.5-3.5-0.9c-1.1-0.3-2-0.6-2.7-0.9c-0.7-0.3-1.2-0.4-1.3-0.4c-0.3,0-0.5,0.1-0.7,0.4l-0.8-0.6l2.7-6.5
		L192.3,196.3z"/>
	<path class="st8" d="M224.6,196.3c0,0.1,0,0.3,0,0.5s0,0.4,0,0.6c0,0.6,0.4,1.1,1.1,1.6c0.7,0.5,1.6,0.9,2.6,1.2s2.1,0.6,3.1,0.8
		s1.8,0.3,2.4,0.3c0.5,0,1.2,0,2-0.1s1.6-0.2,2.4-0.5s1.4-0.6,2-1.1c0.5-0.4,0.8-1,0.8-1.8c0-0.9-0.5-1.5-1.4-1.9s-2.1-0.7-3.6-0.9
		c-1.4-0.2-3-0.4-4.6-0.6s-3.2-0.6-4.6-1.1c-1.4-0.5-2.6-1.2-3.6-2.1c-0.9-0.9-1.4-2.2-1.4-3.9c0-2.5,1-4.4,3.1-5.9s4.9-2.2,8.6-2.2
		c1.8,0,3.4,0.1,4.7,0.4c1.3,0.3,2.4,0.6,3.3,1s1.6,0.7,2.2,1c0.6,0.3,1,0.4,1.2,0.4c0.3,0,0.5-0.1,0.7-0.1c0.1-0.1,0.4-0.2,0.6-0.3
		l0.6,0.6l-2.9,5.5l-1.1-0.4c0-0.2-0.1-0.5-0.1-0.7s-0.2-0.5-0.5-0.7c-0.8-0.7-2-1.2-3.6-1.7s-3.4-0.7-5.5-0.7
		c-0.8,0-1.5,0.1-2.2,0.1c-0.7,0.1-1.3,0.3-1.9,0.5c-0.5,0.2-1,0.5-1.3,0.9s-0.5,0.8-0.5,1.4c0,0.9,0.5,1.5,1.4,1.8s2.1,0.7,3.6,0.9
		c1.4,0.2,3,0.4,4.6,0.6c1.7,0.2,3.2,0.6,4.6,1.1s2.6,1.2,3.6,2.2c0.9,1,1.4,2.3,1.4,4c0,1.7-0.4,3.1-1.2,4.2
		c-0.8,1.1-1.9,1.9-3.1,2.6s-2.6,1-4.1,1.2c-1.5,0.2-2.9,0.3-4.2,0.3s-2.6-0.1-3.9-0.4s-2.5-0.5-3.5-0.9c-1.1-0.3-2-0.6-2.7-0.9
		c-0.7-0.3-1.2-0.4-1.3-0.4c-0.3,0-0.5,0.1-0.7,0.4l-0.8-0.6l2.7-6.5L224.6,196.3z"/>
	<path class="st8" d="M255.6,204.2c0.6,0,1.1-0.1,1.3-0.2c0.2-0.1,0.4-0.4,0.4-0.7v-21.7c0-0.3-0.1-0.5-0.4-0.7s-0.7-0.2-1.3-0.2
		v-1.1h8.8v1.1c-1.1,0-1.6,0.3-1.6,0.9v21.7c0,0.6,0.5,0.9,1.6,0.9v1.1h-8.8V204.2z"/>
	<path class="st8" d="M275.1,204.2c0.2,0,0.4-0.1,0.5-0.2c0.1-0.1,0.2-0.4,0.2-0.8v-21.2c0-0.5,0-0.9-0.1-1
		c-0.1-0.1-0.3-0.2-0.5-0.2v-1.1h8.1v1.1c-0.4,0-0.6,0.2-0.6,0.5c0,0.2,0.1,0.4,0.2,0.6c0.1,0.2,0.3,0.6,0.6,1.1l7.1,13.1l7.1-13
		c0.3-0.5,0.5-0.8,0.6-1.1c0.1-0.3,0.2-0.5,0.2-0.6c0-0.4-0.2-0.5-0.5-0.5v-1.1h8.2v1.1c-0.2,0-0.4,0.1-0.5,0.1
		c-0.2,0.1-0.3,0.3-0.3,0.6v21.8c0,0.3,0.1,0.5,0.3,0.7s0.4,0.2,0.5,0.2v1.1h-6.7v-1.1c0.8,0,1.2-0.3,1-0.9V187h-0.1l-9.9,18.2h-0.5
		l-9.4-18.2h0.1h-0.1v16.3c0,0.6,0.3,0.9,1,0.9v1.1h-6.6L275.1,204.2L275.1,204.2z"/>
</g>
</svg>
